<?xml version="1.0" encoding="UTF-8" ?>
<!DOCTYPE svg PUBLIC "-//W3C//DTD SVG 1.1//EN" "http://www.w3.org/Graphics/SVG/1.1/DTD/svg11.dtd">
<svg width="1363pt" height="796pt" viewBox="0 0 1363 796" version="1.1" xmlns="http://www.w3.org/2000/svg">
<g id="#ffffffff">
</g>
<g id="#ffca08ff">
<path fill="#ffca08" opacity="1.00" d=" M 393.95 0.00 L 612.44 0.00 C 576.07 81.83 539.62 163.63 503.19 245.44 C 469.03 322.21 434.84 398.97 400.67 475.73 C 327.80 475.76 254.93 475.75 182.07 475.74 C 252.70 317.16 323.27 158.55 393.95 0.00 Z" />
</g>
<g id="#fa9d1cff">
<path fill="#fa9d1c" opacity="1.00" d=" M 612.44 0.00 L 612.50 0.00 C 635.39 51.55 658.42 103.04 681.30 154.60 L 681.46 154.96 C 665.85 189.01 650.94 223.38 635.62 257.56 C 617.99 296.99 600.50 336.49 582.89 375.93 C 579.17 383.85 576.18 392.11 571.92 399.76 C 548.99 348.33 526.11 296.87 503.19 245.44 C 539.62 163.63 576.07 81.83 612.44 0.00 Z" />
</g>
<g id="#9e9fa3ff">
<path fill="#9e9fa3" opacity="1.00" d=" M 750.19 0.00 L 750.25 0.00 C 786.66 81.85 823.11 163.68 859.56 245.51 C 836.45 296.97 813.68 348.59 790.63 400.08 C 754.11 318.43 717.85 236.67 681.46 154.96 L 681.30 154.60 C 704.39 103.12 727.28 51.55 750.19 0.00 Z" />
</g>
<g id="#636466ff">
<path fill="#636466" opacity="1.00" d=" M 750.25 0.00 L 968.74 0.00 C 1039.46 158.54 1110.00 317.16 1180.65 475.73 C 1107.80 475.80 1034.94 475.74 962.09 475.76 C 927.88 399.02 893.72 322.26 859.56 245.51 C 823.11 163.68 786.66 81.85 750.25 0.00 Z" />
<path fill="#636466" opacity="1.00" d=" M 1072.59 609.58 C 1086.67 601.87 1103.31 600.41 1119.04 602.07 C 1133.62 603.61 1148.07 609.13 1158.91 619.19 C 1171.47 630.64 1178.60 647.03 1180.99 663.66 C 1165.54 663.67 1150.09 663.68 1134.64 663.65 C 1132.65 656.11 1128.75 648.16 1121.14 644.99 C 1111.66 641.19 1099.40 641.28 1091.60 648.60 C 1086.29 653.54 1084.91 661.04 1084.08 667.91 C 1082.53 682.57 1082.75 697.34 1082.97 712.05 C 1083.41 721.88 1083.45 731.98 1086.58 741.42 C 1088.95 748.78 1096.03 753.81 1103.58 754.68 C 1112.49 755.74 1122.72 754.02 1128.88 746.92 C 1134.37 740.49 1135.41 731.60 1135.45 723.45 C 1126.22 723.17 1116.98 723.42 1107.75 723.33 C 1107.74 710.47 1107.73 697.61 1107.76 684.75 C 1132.25 684.75 1156.74 684.74 1181.24 684.76 C 1180.86 706.90 1182.99 729.65 1176.43 751.14 C 1171.71 767.17 1159.64 780.33 1145.08 788.14 C 1135.70 793.17 1125.07 795.25 1114.55 796.00 L 1102.37 796.00 C 1092.18 795.28 1081.99 792.93 1072.95 788.06 C 1059.22 780.67 1047.40 768.78 1042.30 753.82 C 1035.33 734.01 1036.91 712.66 1036.66 692.03 C 1036.68 675.79 1036.77 659.09 1042.32 643.61 C 1047.42 628.81 1059.10 617.07 1072.59 609.58 Z" />
<path fill="#636466" opacity="1.00" d=" M 0.00 605.18 C 17.66 605.73 35.36 605.26 53.04 605.42 C 64.67 605.64 76.51 604.51 87.92 607.37 C 100.04 610.19 111.53 617.11 118.29 627.74 C 125.13 638.36 127.13 651.66 125.12 664.00 C 122.68 678.49 112.33 691.41 98.49 696.52 C 108.14 700.24 116.86 706.79 122.16 715.78 C 129.84 728.51 130.27 744.49 126.44 758.55 C 122.98 771.30 113.54 782.13 101.43 787.38 C 92.54 791.41 82.68 792.94 72.97 792.92 C 48.65 792.90 24.32 792.92 0.00 792.91 L 0.00 605.18 M 20.11 623.41 C 20.05 645.05 20.10 666.68 20.09 688.32 C 36.73 688.35 53.38 688.33 70.03 688.33 C 80.29 688.20 91.25 685.27 98.32 677.40 C 105.15 669.85 106.78 658.93 105.26 649.15 C 104.20 642.15 100.66 635.43 95.00 631.08 C 87.96 625.56 78.81 623.55 70.03 623.42 C 53.39 623.40 36.75 623.43 20.11 623.41 M 20.10 706.33 C 20.07 729.19 20.08 752.05 20.09 774.91 C 35.39 774.92 50.68 774.91 65.98 774.92 C 72.37 775.02 78.87 774.98 85.04 773.06 C 94.22 770.49 102.41 763.91 105.97 754.94 C 111.01 742.15 109.34 725.80 99.05 716.02 C 91.09 708.40 79.61 706.01 68.92 706.32 C 52.64 706.34 36.37 706.33 20.10 706.33 Z" />
<path fill="#636466" opacity="1.00" d=" M 210.29 605.42 C 215.94 605.43 221.59 605.37 227.25 605.45 C 250.13 667.91 272.97 730.39 295.95 792.81 C 288.78 793.00 281.60 792.94 274.43 792.85 C 269.49 778.72 264.56 764.59 259.42 750.54 C 232.19 750.64 204.96 750.55 177.73 750.58 C 172.71 764.68 167.73 778.79 162.75 792.90 C 155.60 792.94 148.45 792.89 141.31 792.92 C 164.26 730.41 187.29 667.92 210.29 605.42 M 218.73 635.16 C 207.08 667.79 195.44 700.42 183.84 733.07 C 207.12 733.08 230.39 733.10 253.66 733.06 C 242.23 700.44 230.78 667.83 219.31 635.22 C 219.17 635.21 218.88 635.18 218.73 635.16 Z" />
<path fill="#636466" opacity="1.00" d=" M 315.58 605.43 C 321.92 605.39 328.26 605.42 334.61 605.42 C 367.74 655.26 400.83 705.13 433.97 754.97 C 434.05 705.11 433.95 655.26 434.03 605.40 C 440.70 605.40 447.38 605.46 454.06 605.37 C 454.31 667.88 454.10 730.40 454.16 792.91 C 447.80 792.91 441.45 792.91 435.09 792.91 C 401.92 742.91 368.87 692.83 335.69 642.83 C 335.63 692.86 335.67 742.88 335.67 792.90 C 328.98 792.93 322.28 792.90 315.59 792.91 C 315.57 730.42 315.59 667.93 315.58 605.43 Z" />
<path fill="#636466" opacity="1.00" d=" M 497.70 605.52 C 504.40 605.28 511.11 605.48 517.83 605.42 C 517.85 641.24 517.79 677.06 517.86 712.89 C 547.05 677.11 576.01 641.14 605.23 605.39 C 613.41 605.45 621.58 605.39 629.76 605.42 C 610.12 629.60 590.39 653.69 570.78 677.89 C 593.23 716.24 615.72 754.56 638.15 792.91 C 630.19 792.89 622.24 792.95 614.29 792.88 C 595.33 759.65 576.26 726.48 557.28 693.26 C 544.63 708.27 532.16 723.44 519.53 738.47 C 518.79 739.50 517.54 740.47 517.83 741.92 C 517.83 758.92 517.82 775.91 517.83 792.91 C 511.14 792.92 504.45 792.91 497.75 792.91 C 497.71 730.45 497.82 667.98 497.70 605.52 Z" />
<path fill="#636466" opacity="1.00" d=" M 669.33 792.90 C 669.43 730.41 669.15 667.90 669.47 605.42 C 684.56 605.64 699.66 605.39 714.76 605.55 C 728.67 633.06 742.74 660.50 756.69 688.00 C 770.82 660.55 784.71 632.98 798.77 605.50 C 813.90 605.51 829.03 605.49 844.17 605.51 C 844.16 667.98 844.17 730.44 844.16 792.91 C 828.78 792.92 813.39 792.91 798.01 792.91 C 797.95 761.76 798.07 730.61 797.95 699.45 C 789.26 714.64 780.59 729.84 771.86 745.01 C 768.84 750.20 763.03 753.67 756.99 753.61 C 750.88 753.83 744.85 750.49 741.75 745.24 C 732.92 730.07 724.38 714.73 715.51 699.59 C 715.49 730.70 715.51 761.81 715.49 792.91 C 700.10 792.90 684.72 792.93 669.33 792.90 Z" />
<path fill="#636466" opacity="1.00" d=" M 882.67 605.51 C 925.17 605.49 967.67 605.50 1010.16 605.51 C 1010.21 619.15 1010.08 632.80 1010.23 646.44 C 983.11 646.78 955.97 646.46 928.84 646.60 C 928.83 657.01 928.82 667.41 928.84 677.82 C 952.01 677.85 975.17 677.82 998.34 677.84 C 998.33 691.56 998.33 705.27 998.34 718.99 C 975.17 719.03 952.00 718.96 928.84 719.02 C 928.83 729.95 928.82 740.89 928.84 751.82 C 955.95 751.85 983.05 751.82 1010.16 751.83 C 1010.17 765.53 1010.17 779.22 1010.16 792.91 C 967.66 792.91 925.17 792.92 882.68 792.91 C 882.66 730.44 882.66 667.98 882.67 605.51 Z" />
<path fill="#636466" opacity="1.00" d=" M 1258.92 605.51 C 1270.82 605.54 1282.73 605.40 1294.64 605.58 C 1310.58 649.81 1326.76 693.95 1342.79 738.14 C 1349.61 756.37 1355.79 774.86 1363.00 792.94 L 1363.00 792.94 C 1347.07 792.87 1331.14 792.95 1315.22 792.90 C 1312.15 783.60 1309.12 774.30 1306.01 765.01 C 1286.46 765.03 1266.90 764.91 1247.35 765.07 C 1244.40 774.38 1241.27 783.63 1238.22 792.91 C 1222.40 792.92 1206.58 792.91 1190.77 792.91 C 1213.45 730.43 1236.19 667.97 1258.92 605.51 M 1276.65 673.59 C 1271.00 691.54 1265.26 709.46 1259.60 727.40 C 1271.01 727.43 1282.43 727.41 1293.86 727.41 C 1288.11 709.47 1282.62 691.45 1276.65 673.59 Z" />
</g>
<g id="#f37022ff">
<path fill="#f37022" opacity="1.00" d=" M 681.46 154.96 C 717.85 236.67 754.11 318.43 790.63 400.08 C 780.85 421.57 764.43 439.93 744.30 452.26 C 714.48 470.78 676.39 474.98 643.16 463.79 C 611.92 453.51 585.44 429.75 571.92 399.76 C 576.18 392.11 579.17 383.85 582.89 375.93 C 600.50 336.49 617.99 296.99 635.62 257.56 C 650.94 223.38 665.85 189.01 681.46 154.96 Z" />
</g>
</svg>
